<svg xmlns="http://www.w3.org/2000/svg" xmlns:xlink="http://www.w3.org/1999/xlink" width="482" height="128" viewBox="0 0 482 128">
  <defs>
    <linearGradient id="linear-gradient" x1="0.063" y1="0.549" x2="1.195" y2="0.549" gradientUnits="objectBoundingBox">
      <stop offset="0" stop-color="#3ddeed"/>
      <stop offset="0.091" stop-color="#3cd9e8"/>
      <stop offset="0.203" stop-color="#38cbd9"/>
      <stop offset="0.327" stop-color="#31b3bf"/>
      <stop offset="0.459" stop-color="#28929c"/>
      <stop offset="0.597" stop-color="#1d686f"/>
      <stop offset="0.739" stop-color="#0f3539"/>
      <stop offset="0.87"/>
    </linearGradient>
    <linearGradient id="linear-gradient-2" x1="0.229" y1="0.621" x2="0.772" y2="0.379" gradientUnits="objectBoundingBox">
      <stop offset="0" stop-color="#3ddeed"/>
      <stop offset="0.097" stop-color="#3bd8e7"/>
      <stop offset="0.228" stop-color="#37c8d5"/>
      <stop offset="0.38" stop-color="#30adb9"/>
      <stop offset="0.546" stop-color="#258891"/>
      <stop offset="0.725" stop-color="#18585e"/>
      <stop offset="0.911" stop-color="#081e20"/>
      <stop offset="1"/>
    </linearGradient>
    <linearGradient id="linear-gradient-3" y1="0.5" x2="1" y2="0.5" gradientUnits="objectBoundingBox">
      <stop offset="0" stop-color="#3ddeed"/>
      <stop offset="0.101" stop-color="#3cd9e7"/>
      <stop offset="0.231" stop-color="#37cad7"/>
      <stop offset="0.377" stop-color="#31b1bd"/>
      <stop offset="0.534" stop-color="#278e98"/>
      <stop offset="0.7" stop-color="#1b6268"/>
      <stop offset="0.872" stop-color="#0c2c2f"/>
      <stop offset="1"/>
    </linearGradient>
    <linearGradient id="linear-gradient-4" x1="0.916" y1="0.233" x2="0.086" y2="0.922" gradientUnits="objectBoundingBox">
      <stop offset="0" stop-color="#3ddeed"/>
      <stop offset="0.104" stop-color="#3cd9e8"/>
      <stop offset="0.234" stop-color="#38cbd8"/>
      <stop offset="0.376" stop-color="#31b3bf"/>
      <stop offset="0.528" stop-color="#28929c"/>
      <stop offset="0.688" stop-color="#1c686f"/>
      <stop offset="0.851" stop-color="#0e3538"/>
      <stop offset="1"/>
    </linearGradient>
    <clipPath id="clip-Монтажная_область_28">
      <rect width="482" height="128"/>
    </clipPath>
  </defs>
  <g id="Монтажная_область_28" data-name="Монтажная область – 28" clip-path="url(#clip-Монтажная_область_28)">
    <rect width="482" height="128" fill="rgba(0,0,0,0)"/>
    <g id="Сгруппировать_1" data-name="Сгруппировать 1" transform="translate(-21 -109)">
      <text id="WEBCRAFT" transform="translate(172 198)" fill="#fff" font-size="47" font-family="Montserrat-Bold, Montserrat" font-weight="700"><tspan x="0" y="0">WEBCRAFT</tspan></text>
    </g>
    <path id="Контур_95" data-name="Контур 95" d="M434.12,371.54h0a8.116,8.116,0,0,0,11.312-1.946l26.477-37.46a8.116,8.116,0,0,0-1.946-11.312h0a8.116,8.116,0,0,0-11.312,1.946l-26.477,37.46A8.121,8.121,0,0,0,434.12,371.54Z" transform="translate(-364.638 -279.72)" fill="url(#linear-gradient)"/>
    <path id="Контур_96" data-name="Контур 96" d="M482.018,320.58h0a8.116,8.116,0,0,1,11.268,2.17l25.463,37.624a8.116,8.116,0,0,1-2.17,11.268h0a8.116,8.116,0,0,1-11.268-2.17l-25.463-37.619A8.118,8.118,0,0,1,482.018,320.58Z" transform="translate(-386.224 -279.652)" fill="url(#linear-gradient-2)"/>
    <ellipse id="Эллипс_31" data-name="Эллипс 31" cx="8.117" cy="8.117" rx="8.117" ry="8.117" transform="translate(128.108 37.009)" fill="url(#linear-gradient-3)"/>
    <path id="Контур_97" data-name="Контур 97" d="M431.882,372.055h0a8.115,8.115,0,0,1-9.9-5.815l-9.991-38.43a8.115,8.115,0,0,1,5.815-9.9h0a8.115,8.115,0,0,1,9.9,5.815l9.991,38.43A8.123,8.123,0,0,1,431.882,372.055Z" transform="translate(-356.07 -278.958)" fill="url(#linear-gradient-4)"/>
  </g>
</svg>
